<svg xmlns="http://www.w3.org/2000/svg" viewBox="0 0 100 100">
  <path fill="#374548" d="M90.625 12.5C90.625 5.625 85 0 78.125 0H33.437C30 0 26.875 1.25 24.688 3.75L13.126 15c-2.5 2.5-3.75 5.625-3.75 9.063v22.812h6.25v9.375l-6.25 6.25v25c0 6.875 5.625 12.5 12.5 12.5h56.25c6.875 0 12.5-5.625 12.5-12.5zm-31.25-3.125h6.25v12.5h-6.25zm-12.5 0h6.25v12.5h-6.25zm-12.5 0h6.25v12.5h-6.25zm43.75 12.5h-6.25v-12.5h6.25z"/>
  <path fill="#afdde9" d="M49.992 31.084c-2.66 8.436-9.109 14.774-14.572 21.436-4.924 5.848-7.879 14.072-5.452 21.603 3.576 10.74 16.795 16.887 27.315 12.66 7.904-2.815 14.329-10.736 13.55-19.392-.255-7.71-5.227-14.05-10.067-19.613-4.319-5.046-8.4-10.427-10.774-16.694zm0 53.02c4.057-6.671 2.954-14.882 1.425-22.14-1.178-6.281-3.431-12.652-2.239-19.099.299-1.585 1.404-1.666 1.878-1.114 6.097 7.116 10.5 11.886 14.04 19.008 2.49 5.175 2.546 11.845-1.247 16.425-3.258 4.228-8.5 6.92-13.857 6.92z"/>
</svg>
