<svg xmlns="http://www.w3.org/2000/svg" viewBox="0 0 100 100">
  <path fill="#374548" d="M27.106 4.808c-2.66 8.435-9.108 14.773-14.572 21.435-4.924 5.849-7.879 14.073-5.452 21.604 3.577 10.74 16.795 16.886 27.315 12.66 7.904-2.815 14.33-10.736 13.55-19.393-.255-7.71-5.227-14.049-10.067-19.612-4.319-5.047-8.4-10.427-10.774-16.694zm0 53.02c4.057-6.672 2.954-14.883 1.425-22.141-1.178-6.28-3.431-12.651-2.239-19.098.299-1.585 1.405-1.667 1.878-1.114 6.097 7.116 10.5 11.885 14.04 19.007 2.49 5.176 2.546 11.846-1.247 16.425-3.258 4.228-8.5 6.92-13.857 6.921z"/>
  <path fill="#6f8a91" d="M74.008 37.583c-2.66 8.435-9.108 14.773-14.572 21.435-4.924 5.849-7.879 14.073-5.451 21.604 3.576 10.74 16.794 16.886 27.314 12.66 7.904-2.815 14.33-10.737 13.55-19.393-.255-7.71-5.227-14.049-10.067-19.613-4.319-5.046-8.4-10.426-10.774-16.693zm0 53.02c4.057-6.672 2.954-14.883 1.425-22.141-1.178-6.28-3.431-12.651-2.239-19.098.299-1.585 1.405-1.667 1.878-1.114 6.097 7.116 10.5 11.885 14.04 19.007 2.49 5.176 2.546 11.845-1.247 16.425-3.258 4.228-8.5 6.92-13.857 6.921z"/>
  <path fill="#1c2224" d="M53.4 39.253c8.138 11.19 32.145 45.05 40.282 56.238l.405-.294.404-.294c-8.137-11.189-32.953-44.46-41.09-55.65z"/>
  <path fill="#1c2224" d="M94.491 39.253c-8.137 11.19-32.145 45.05-40.282 56.238l-.404-.294-.404-.294c8.137-11.189 32.953-44.46 41.09-55.65z"/>
</svg>
