<?xml version="1.0" encoding="UTF-8" standalone="no"?>
<svg
   xmlns:dc="http://purl.org/dc/elements/1.1/"
   xmlns:cc="http://creativecommons.org/ns#"
   xmlns:rdf="http://www.w3.org/1999/02/22-rdf-syntax-ns#"
   xmlns:svg="http://www.w3.org/2000/svg"
   xmlns="http://www.w3.org/2000/svg"
   xmlns:sodipodi="http://sodipodi.sourceforge.net/DTD/sodipodi-0.dtd"
   xmlns:inkscape="http://www.inkscape.org/namespaces/inkscape"
   viewBox="0 0 99.999999 100"
   version="1.1"
   id="svg6"
   sodipodi:docname="imgdedup.svg"
   inkscape:version="0.92.4 (5da689c313, 2019-01-14)"
   width="100"
   height="100">
  <metadata
     id="metadata12">
    <rdf:RDF>
      <cc:Work
         rdf:about="">
        <dc:format>image/svg+xml</dc:format>
        <dc:type
           rdf:resource="http://purl.org/dc/dcmitype/StillImage" />
        <dc:title></dc:title>
      </cc:Work>
    </rdf:RDF>
  </metadata>
  <defs
     id="defs10">
    <inkscape:path-effect
       end_linecap_type="zerowidth"
       miter_limit="4"
       linejoin_type="extrp_arc"
       start_linecap_type="zerowidth"
       interpolator_beta="0.2"
       interpolator_type="CubicBezierJohan"
       sort_points="true"
       offset_points="1,0.5"
       is_visible="true"
       id="path-effect39"
       effect="powerstroke" />
    <inkscape:path-effect
       effect="powerstroke"
       id="path-effect35"
       is_visible="true"
       offset_points="1,0.5"
       sort_points="true"
       interpolator_type="CubicBezierJohan"
       interpolator_beta="0.2"
       start_linecap_type="zerowidth"
       linejoin_type="extrp_arc"
       miter_limit="4"
       end_linecap_type="zerowidth" />
  </defs>
  <sodipodi:namedview
     pagecolor="#ffffff"
     bordercolor="#666666"
     borderopacity="1"
     objecttolerance="10"
     gridtolerance="10"
     guidetolerance="10"
     inkscape:pageopacity="0"
     inkscape:pageshadow="2"
     inkscape:window-width="1069"
     inkscape:window-height="801"
     id="namedview8"
     showgrid="false"
     inkscape:zoom="3.539292"
     inkscape:cx="55.302934"
     inkscape:cy="50.095982"
     inkscape:window-x="927"
     inkscape:window-y="386"
     inkscape:window-maximized="0"
     inkscape:current-layer="svg6" />
  <path
     sodipodi:nodetypes="ccccccccccsccc"
     d="M 27.1063,4.8080026 C 24.445416,13.243154 17.997542,19.581351 12.534325,26.243174 7.6104639,32.091744 4.6553229,40.315943 7.0824879,47.846749 10.658515,58.586808 23.876668,64.733229 34.396781,60.506963 42.300965,57.692051 48.726053,49.770501 47.946381,41.114209 47.692264,33.403612 42.720465,27.065414 37.87992,21.50151 33.56138,16.455402 29.480133,11.074886 27.1063,4.8080026 Z m 0,53.0200904 c 4.056673,-6.672009 2.953345,-14.883021 1.424547,-22.141146 -1.178228,-6.280666 -3.430994,-12.651229 -2.238387,-19.097899 0.298449,-1.585151 1.404084,-1.66674 1.877605,-1.1141 6.096992,7.11587 10.499746,11.885322 14.04041,19.007407 2.488873,5.175554 2.545211,11.845167 -1.247149,16.42502 -3.25839,4.22806 -8.499871,6.920119 -13.857026,6.920718 z"
     id="path7"
     inkscape:connector-curvature="0"
     style="fill:#374548;stroke-width:0.3502779" />
  <path
     style="fill:#6f8a91;stroke-width:0.3502779"
     inkscape:connector-curvature="0"
     id="path29"
     d="M 74.008335,37.582919 C 71.347451,46.01807 64.899577,52.356267 59.43636,59.01809 54.512499,64.86666 51.557358,73.090859 53.984523,80.621665 57.56055,91.361724 70.778703,97.508145 81.298816,93.281879 89.203,90.466967 95.628088,82.545417 94.848416,73.889125 94.594299,66.178528 89.6225,59.84033 84.781955,54.276426 80.463415,49.230318 76.382168,43.849802 74.008335,37.582919 Z m 0,53.02009 C 78.065008,83.931 76.96168,75.719988 75.432882,68.461863 74.254654,62.181197 72.001888,55.810634 73.194495,49.363964 c 0.298449,-1.585151 1.404084,-1.66674 1.877605,-1.1141 6.096992,7.11587 10.499746,11.885322 14.04041,19.007407 2.488873,5.175554 2.545211,11.845167 -1.247149,16.42502 -3.25839,4.22806 -8.499871,6.920119 -13.857026,6.920718 z"
     sodipodi:nodetypes="ccccccccccsccc" />
  <path
     style="fill:#1c2224;fill-rule:nonzero;stroke:none;stroke-width:1px;stroke-linecap:butt;stroke-linejoin:miter;stroke-opacity:1"
     d="m 53.400511,39.253387 c 8.137221,11.188678 32.144514,45.048799 40.281735,56.237478 0,0 0.404368,-0.294086 0.404368,-0.294086 0,0 0.404368,-0.294086 0.404368,-0.294086 C 86.353761,83.714015 61.537732,50.442065 53.400511,39.253387 Z"
     id="path33"
     inkscape:connector-curvature="0"
     inkscape:path-effect="#path-effect35"
     inkscape:original-d="M 53.400511,39.253387 94.086614,95.196779" />
  <path
     inkscape:original-d="M 53.400511,39.253387 94.086614,95.196779"
     inkscape:path-effect="#path-effect39"
     inkscape:connector-curvature="0"
     id="path37"
     d="m 53.400511,39.253387 c 8.137221,11.188678 32.144514,45.048799 40.281735,56.237478 0,0 0.404368,-0.294086 0.404368,-0.294086 0,0 0.404368,-0.294086 0.404368,-0.294086 C 86.353761,83.714015 61.537732,50.442065 53.400511,39.253387 Z"
     style="fill:#1c2224;fill-rule:nonzero;stroke:none;stroke-width:1px;stroke-linecap:butt;stroke-linejoin:miter;stroke-opacity:1"
     transform="matrix(-1,0,0,1,147.89149,0)" />
</svg>
