<svg xmlns="http://www.w3.org/2000/svg" viewBox="0 0 33.333 33.34">
  <path fill="#039be5" d="M16.663 3.461c-1.232 3.907-4.218 6.842-6.749 9.927-2.28 2.709-3.649 6.518-2.524 10.006 1.656 4.974 7.777 7.82 12.65 5.863 3.66-1.304 6.636-4.973 6.275-8.982-.118-3.57-2.42-6.506-4.662-9.083-2-2.337-3.89-4.829-4.99-7.73zm0 24.555c1.879-3.09 1.368-6.893.66-10.254-.546-2.909-1.59-5.86-1.037-8.845.138-.734.65-.772.87-.516 2.824 3.296 4.863 5.505 6.502 8.803 1.153 2.397 1.18 5.486-.577 7.607-1.51 1.958-3.937 3.205-6.418 3.205z"/>
</svg>
